<svg xmlns="http://www.w3.org/2000/svg" xml:space="preserve" width="30mm" height="64.5812mm" version="1.1" style="shape-rendering:geometricPrecision; text-rendering:geometricPrecision; image-rendering:optimizeQuality; fill-rule:evenodd; clip-rule:evenodd"
viewBox="0 0 48.11 103.56"
 xmlns:xlink="http://www.w3.org/1999/xlink"
 xmlns:xodm="http://www.corel.com/coreldraw/odm/2003">
 <defs>
  <style type="text/css">
   <![CDATA[
    .fil0 {fill:#666666}
   ]]>
  </style>
 </defs>
 <g id="Layer_x0020_1">
  <metadata id="CorelCorpID_0Corel-Layer"/>
  <path class="fil0" d="M10.19 22.04l0 11.37 -10.19 0 0 18.48 10.19 0 0 50.95c0,0.55 0.17,0.71 0.71,0.71l20.85 0 0 -51.66 13.98 0c1.03,0 0.72,-1.65 0.99,-4.23 0.15,-1.44 0.3,-3.09 0.5,-4.71 0.18,-1.41 0.26,-3.09 0.47,-4.74 0.18,-1.39 0.41,-3.11 0.41,-4.81l-16.35 0 0 -9.95c0,-3.84 1.59,-5.69 5.45,-5.69l10.66 0 0 -17.77 -17.3 0c-6.37,0 -10.82,2.21 -14.87,6.22 -3.28,3.25 -5.51,9.31 -5.51,15.82z"/>
 </g>
</svg>
