<?xml version="1.0" encoding="UTF-8"?>
<!DOCTYPE svg PUBLIC "-//W3C//DTD SVG 1.1//EN" "http://www.w3.org/Graphics/SVG/1.1/DTD/svg11.dtd">
<!-- Creator: CorelDRAW -->
<svg xmlns="http://www.w3.org/2000/svg" xml:space="preserve" width="30mm" height="30.0002mm" version="1.1" style="shape-rendering:geometricPrecision; text-rendering:geometricPrecision; image-rendering:optimizeQuality; fill-rule:evenodd; clip-rule:evenodd"
viewBox="0 0 84.14 84.14"
 xmlns:xlink="http://www.w3.org/1999/xlink"
 xmlns:xodm="http://www.corel.com/coreldraw/odm/2003">
 <defs>
  <style type="text/css">
   <![CDATA[
    .fil0 {fill:#666666}
   ]]>
  </style>
 </defs>
 <g id="Layer_x0020_1">
  <metadata id="CorelCorpID_0Corel-Layer"/>
  <g id="_1247447472640">
   <path class="fil0" d="M55.39 76.66l-26.83 0c-3.43,0 -5.93,-0.33 -8.56,-1.22 -2.17,-0.73 -4.71,-2.35 -6.25,-3.72 -3.04,-2.68 -6.28,-7.82 -6.28,-13.46l0 -32.77c0,-3.95 1.98,-8.45 4.45,-11.27 0.44,-0.5 0.55,-0.75 1.05,-1.25 1.17,-1.17 3.84,-3.05 5.29,-3.72 1.75,-0.82 4.77,-1.79 7.22,-1.79l33.16 0c3.87,0 7.1,1.56 9.97,3.45l2.54 2.06c0.48,0.48 0.55,0.65 0.96,1.14 2.55,3.03 4.54,7.16 4.54,11.37 0,5.91 0.32,30.21 -0.32,34.56 -0.61,4.17 -2.38,7.93 -5.28,10.82 -3.81,3.79 -8.15,5.8 -15.67,5.8zm-55.39 -54.62l0 39.86c0,5.73 2.53,10.46 5.88,14.43 0.59,0.7 0.71,0.99 1.48,1.59 2.7,2.09 3.62,3.07 7.2,4.49 2.88,1.14 5.95,1.72 9.97,1.72l34.69 0c11.28,0 19.27,-5.33 23.11,-14.46 1.3,-3.09 1.81,-6.53 1.81,-10.84l0 -33.54c0,-6.62 -1.58,-13.23 -6.08,-17.68 -2.33,-2.31 -3.51,-3.57 -6.69,-5.19 -2.27,-1.16 -6.14,-2.42 -9.46,-2.42l-39.86 0c-3.55,0 -6.23,1.09 -8.79,2.13 -1.26,0.51 -2.38,1.29 -3.52,2.04 -1.61,1.07 -4.4,3.84 -5.48,5.44 -2.46,3.64 -4.25,7.83 -4.25,12.42z"/>
   <path class="fil0" d="M27.6 41.97c0,-14.91 20.52,-19.7 26.99,-6.1 2.64,5.55 1.52,11.77 -2.89,16.21 -8.73,8.78 -24.1,2.58 -24.1,-10.11zm-7.09 -0.96c0,4.68 0.32,6 2,10.08 0.9,2.19 2.81,4.66 4.44,6.29 1.86,1.86 3.41,2.92 5.83,4.14 7.04,3.55 14.71,2.48 21.2,-1.8 5.17,-3.42 9.27,-10.47 9.27,-16.79 0,-5.41 -0.33,-7.35 -2.87,-12.07l-2.06 -2.93c-0.93,-0.95 -0.95,-1.16 -1.8,-1.84 -1.86,-1.48 -1.97,-2.12 -5.14,-3.67 -8.35,-4.08 -18.19,-2.21 -24.68,4.27 -3.42,3.41 -6.18,9.26 -6.18,14.33z"/>
   <path class="fil0" d="M59.6 18.78l0 1.15c0,3.51 5,6.45 8.54,3.17 3.22,-2.98 1.2,-8.92 -2.79,-8.92l-1.15 0c-2.17,0 -4.6,2.43 -4.6,4.6z"/>
  </g>
 </g>
</svg>
